Coordinates
version=1
nRows=38
nColumns=12
inDegrees=yes

Units are S.I. units (second, meters, Newtons, ...)
Angles are in degrees

endheader
time	SC_y	SC_z	SC_x	AC_y	AC_z	AC_x	GH_y	GH_z	GH_yy	EL_x	PS_y
       0.0              -55.78          18.16          9.785          58.45         -11.66         -19.26         -12.97          17.23         -26.36          103.2          104.0
  0.001831              -55.77          18.16          9.795          58.45         -11.66         -19.26         -12.95          17.22         -26.35          103.2          104.0
  0.003661              -55.77          18.16          9.806          58.44         -11.65         -19.25         -12.93          17.22         -26.34          103.2          104.0
  0.005492              -55.76          18.15          9.817          58.44         -11.65         -19.25          -12.9          17.22         -26.32          103.2          104.0
  0.007323              -55.76          18.15           9.83          58.44         -11.65         -19.25         -12.88          17.22         -26.31          103.2          104.0
  0.009153              -55.75          18.15          9.843          58.43         -11.65         -19.24         -12.86          17.21          -26.3          103.2          104.0
   0.01098              -55.74          18.15          9.857          58.43         -11.64         -19.24         -12.83          17.21         -26.28          103.2          104.0
   0.01281              -55.74          18.14          9.872          58.42         -11.64         -19.24          -12.8          17.21         -26.26          103.2          104.0
   0.01465              -55.73          18.14          9.888          58.42         -11.64         -19.23         -12.77           17.2         -26.24          103.2          103.9
   0.01648              -55.72          18.14          9.905          58.41         -11.63         -19.23         -12.74           17.2         -26.22          103.2          103.9
   0.01831              -55.71          18.13          9.924          58.41         -11.63         -19.22          -12.7           17.2          -26.2          103.2          103.9
   0.02014               -55.7          18.13          9.944           58.4         -11.62         -19.22         -12.67          17.19         -26.18          103.2          103.9
   0.02197              -55.69          18.13          9.965           58.4         -11.62         -19.21         -12.62          17.19         -26.16          103.2          103.9
    0.0238              -55.68          18.12          9.988          58.39         -11.61         -19.21         -12.58          17.18         -26.13          103.2          103.9
   0.02563              -55.67          18.12          10.01          58.38         -11.61          -19.2         -12.53          17.18          -26.1          103.3          103.9
   0.02746              -55.66          18.11          10.04          58.37          -11.6         -19.19         -12.48          17.17         -26.07          103.3          103.9
   0.02929              -55.65          18.11          10.07          58.36          -11.6         -19.18         -12.43          17.17         -26.04          103.3          103.9
   0.03112              -55.63           18.1           10.1          58.35         -11.59         -19.18         -12.37          17.16          -26.0          103.3          103.9
   0.03295              -55.62          18.09          10.14          58.34         -11.58         -19.17          -12.3          17.15         -25.96          103.3          103.8
   0.03478               -55.6          18.09          10.18          58.33         -11.58         -19.16         -12.23          17.15         -25.91          103.3          103.8
   0.03661              -55.58          18.08          10.22          58.32         -11.57         -19.15         -12.15          17.14         -25.87          103.3          103.8
   0.03844              -55.56          18.07          10.27           58.3         -11.56         -19.13         -12.06          17.13         -25.81          103.3          103.8
   0.04027              -55.54          18.06          10.32          58.29         -11.55         -19.12         -11.96          17.12         -25.75          103.4          103.8
    0.0421              -55.51          18.05          10.37          58.27         -11.53         -19.11         -11.85           17.1         -25.69          103.4          103.7
   0.04394              -55.48          18.04          10.44          58.25         -11.52         -19.09         -11.73          17.09         -25.62          103.4          103.7
   0.04577              -55.45          18.03          10.51          58.23         -11.51         -19.07          -11.6          17.08         -25.54          103.4          103.7
    0.0476              -55.42          18.01          10.59          58.21         -11.49         -19.05         -11.45          17.06         -25.45          103.4          103.7
   0.04943              -55.38          17.99          10.68          58.18         -11.47         -19.03         -11.28          17.04         -25.34          103.5          103.6
   0.05126              -55.33          17.98          10.78          58.15         -11.45          -19.0         -11.09          17.02         -25.23          103.5          103.6
   0.05309              -55.28          17.95          10.89          58.11         -11.42         -18.97         -10.87           17.0          -25.1          103.6          103.5
   0.05492              -55.22          17.93          11.02          58.07          -11.4         -18.94         -10.63          16.97         -24.95          103.6          103.5
   0.05675              -55.15           17.9          11.17          58.03         -11.37          -18.9         -10.34          16.94         -24.78          103.6          103.4
   0.05858              -55.08          17.87          11.34          57.97         -11.33         -18.86         -10.02           16.9         -24.58          103.7          103.3
   0.06041              -54.99          17.83          11.55          57.91         -11.29         -18.81         -9.638          16.86         -24.35          103.8          103.3
   0.06224              -54.88          17.79          11.78          57.84         -11.24         -18.75         -9.194          16.81         -24.09          103.9          103.2
   0.06407              -54.76          17.74          12.06          57.76         -11.18         -18.68          -8.67          16.76         -23.77          104.0          103.1
    0.0659              -54.61          17.68          12.39          57.66         -11.11         -18.59         -8.048          16.69         -23.39          104.1          102.9
   0.06773              -54.43           17.6          12.78          57.53         -11.03         -18.49         -7.302          16.61         -22.94          104.2          102.8
